%TF.GenerationSoftware,KiCad,Pcbnew,7.0.7*%
%TF.CreationDate,2023-10-23T09:45:21-04:00*%
%TF.ProjectId,RCKart,52434b61-7274-42e6-9b69-6361645f7063,rev?*%
%TF.SameCoordinates,Original*%
%TF.FileFunction,Copper,L2,Bot*%
%TF.FilePolarity,Positive*%
%FSLAX46Y46*%
G04 Gerber Fmt 4.6, Leading zero omitted, Abs format (unit mm)*
G04 Created by KiCad (PCBNEW 7.0.7) date 2023-10-23 09:45:21*
%MOMM*%
%LPD*%
G01*
G04 APERTURE LIST*
%TA.AperFunction,ComponentPad*%
%ADD10R,1.700000X1.700000*%
%TD*%
%TA.AperFunction,ComponentPad*%
%ADD11O,1.700000X1.700000*%
%TD*%
%TA.AperFunction,ComponentPad*%
%ADD12R,3.000000X3.000000*%
%TD*%
%TA.AperFunction,ComponentPad*%
%ADD13C,3.000000*%
%TD*%
%TA.AperFunction,ComponentPad*%
%ADD14R,1.600000X1.600000*%
%TD*%
%TA.AperFunction,ComponentPad*%
%ADD15O,1.600000X1.600000*%
%TD*%
G04 APERTURE END LIST*
D10*
%TO.P,J13,1,Pin_1*%
%TO.N,Net-(A1-D13)*%
X152400000Y-124460000D03*
D11*
%TO.P,J13,2,Pin_2*%
%TO.N,unconnected-(J13-Pin_2-Pad2)*%
X154940000Y-124460000D03*
%TO.P,J13,3,Pin_3*%
%TO.N,Net-(A1-A0)*%
X157480000Y-124460000D03*
%TO.P,J13,4,Pin_4*%
%TO.N,unconnected-(J13-Pin_4-Pad4)*%
X160020000Y-124460000D03*
%TO.P,J13,5,Pin_5*%
%TO.N,Net-(A1-D9)*%
X162560000Y-124460000D03*
%TO.P,J13,6,Pin_6*%
%TO.N,unconnected-(J13-Pin_6-Pad6)*%
X165100000Y-124460000D03*
%TO.P,J13,7,Pin_7*%
%TO.N,unconnected-(J13-Pin_7-Pad7)*%
X167640000Y-124460000D03*
%TO.P,J13,8,Pin_8*%
%TO.N,unconnected-(J13-Pin_8-Pad8)*%
X170180000Y-124460000D03*
%TO.P,J13,9,Pin_9*%
%TO.N,Net-(A1-D7)*%
X172720000Y-124460000D03*
%TO.P,J13,10,Pin_10*%
%TO.N,Net-(A1-D10)*%
X175260000Y-124460000D03*
%TD*%
D10*
%TO.P,J3,1,Pin_1*%
%TO.N,GND*%
X210820000Y-68580000D03*
D11*
%TO.P,J3,2,Pin_2*%
%TO.N,+5V*%
X208280000Y-68580000D03*
%TO.P,J3,3,Pin_3*%
%TO.N,Net-(J3-Pin_3)*%
X205740000Y-68580000D03*
%TD*%
D10*
%TO.P,J5,1,Pin_1*%
%TO.N,GND*%
X210820000Y-78740000D03*
D11*
%TO.P,J5,2,Pin_2*%
%TO.N,+5V*%
X208280000Y-78740000D03*
%TO.P,J5,3,Pin_3*%
%TO.N,unconnected-(J5-Pin_3-Pad3)*%
X205740000Y-78740000D03*
%TD*%
D10*
%TO.P,J8,1,Pin_1*%
%TO.N,GND*%
X210820000Y-83820000D03*
D11*
%TO.P,J8,2,Pin_2*%
%TO.N,+5V*%
X208280000Y-83820000D03*
%TO.P,J8,3,Pin_3*%
%TO.N,Net-(A1-D11)*%
X205740000Y-83820000D03*
%TD*%
D10*
%TO.P,J2,1,Pin_1*%
%TO.N,Net-(J2-Pin_1)*%
X208280000Y-58420000D03*
D11*
%TO.P,J2,2,Pin_2*%
%TO.N,Net-(J2-Pin_2)*%
X208280000Y-60960000D03*
%TD*%
D12*
%TO.P,J7,1,Pin_1*%
%TO.N,+3V3*%
X187960000Y-48260000D03*
D13*
%TO.P,J7,2,Pin_2*%
%TO.N,GND*%
X193040000Y-48260000D03*
%TD*%
D10*
%TO.P,J1,1,Pin_1*%
%TO.N,Net-(J1-Pin_1)*%
X144780000Y-124460000D03*
%TD*%
D14*
%TO.P,A1,1,NC*%
%TO.N,unconnected-(A1-NC-Pad1)*%
X151765000Y-64770000D03*
D15*
%TO.P,A1,2,IOREF*%
%TO.N,unconnected-(A1-IOREF-Pad2)*%
X154305000Y-64770000D03*
%TO.P,A1,3,~{RESET}*%
%TO.N,unconnected-(A1-~{RESET}-Pad3)*%
X156845000Y-64770000D03*
%TO.P,A1,4,3V3*%
%TO.N,+3V3*%
X159385000Y-64770000D03*
%TO.P,A1,5,+5V*%
%TO.N,unconnected-(A1-+5V-Pad5)*%
X161925000Y-64770000D03*
%TO.P,A1,6,GND*%
%TO.N,GND*%
X164465000Y-64770000D03*
%TO.P,A1,7,GND*%
%TO.N,unconnected-(A1-GND-Pad7)*%
X167005000Y-64770000D03*
%TO.P,A1,8,VIN*%
%TO.N,+12V*%
X169545000Y-64770000D03*
%TO.P,A1,9,A0*%
%TO.N,Net-(A1-A0)*%
X174625000Y-64770000D03*
%TO.P,A1,10,A1*%
%TO.N,unconnected-(A1-A1-Pad10)*%
X177165000Y-64770000D03*
%TO.P,A1,11,A2*%
%TO.N,unconnected-(A1-A2-Pad11)*%
X179705000Y-64770000D03*
%TO.P,A1,12,A3*%
%TO.N,unconnected-(A1-A3-Pad12)*%
X182245000Y-64770000D03*
%TO.P,A1,13,SDA/A4*%
%TO.N,Net-(J2-Pin_1)*%
X184785000Y-64770000D03*
%TO.P,A1,14,SCL/A5*%
%TO.N,Net-(J2-Pin_2)*%
X187325000Y-64770000D03*
%TO.P,A1,15,D0/RX*%
%TO.N,unconnected-(A1-D0{slash}RX-Pad15)*%
X187325000Y-113030000D03*
%TO.P,A1,16,D1/TX*%
%TO.N,unconnected-(A1-D1{slash}TX-Pad16)*%
X184785000Y-113030000D03*
%TO.P,A1,17,D2*%
%TO.N,UART*%
X182245000Y-113030000D03*
%TO.P,A1,18,D3*%
%TO.N,unconnected-(A1-D3-Pad18)*%
X179705000Y-113030000D03*
%TO.P,A1,19,D4*%
%TO.N,unconnected-(A1-D4-Pad19)*%
X177165000Y-113030000D03*
%TO.P,A1,20,D5*%
%TO.N,unconnected-(A1-D5-Pad20)*%
X174625000Y-113030000D03*
%TO.P,A1,21,D6*%
%TO.N,unconnected-(A1-D6-Pad21)*%
X172085000Y-113030000D03*
%TO.P,A1,22,D7*%
%TO.N,Net-(A1-D7)*%
X169545000Y-113030000D03*
%TO.P,A1,23,D8*%
%TO.N,UART*%
X165485000Y-113030000D03*
%TO.P,A1,24,D9*%
%TO.N,Net-(A1-D9)*%
X162945000Y-113030000D03*
%TO.P,A1,25,D10*%
%TO.N,Net-(A1-D10)*%
X160405000Y-113030000D03*
%TO.P,A1,26,D11*%
%TO.N,Net-(A1-D11)*%
X157865000Y-113030000D03*
%TO.P,A1,27,D12*%
%TO.N,Net-(A1-D12)*%
X155325000Y-113030000D03*
%TO.P,A1,28,D13*%
%TO.N,Net-(A1-D13)*%
X152785000Y-113030000D03*
%TO.P,A1,29,GND*%
%TO.N,unconnected-(A1-GND-Pad29)*%
X150245000Y-113030000D03*
%TO.P,A1,30,AREF*%
%TO.N,unconnected-(A1-AREF-Pad30)*%
X147705000Y-113030000D03*
%TO.P,A1,31,SDA/A4*%
%TO.N,Net-(J1-Pin_1)*%
X145165000Y-113030000D03*
%TO.P,A1,32,SCL/A5*%
%TO.N,Net-(J3-Pin_3)*%
X142625000Y-113030000D03*
%TD*%
D10*
%TO.P,J4,1,Pin_1*%
%TO.N,GND*%
X210820000Y-73660000D03*
D11*
%TO.P,J4,2,Pin_2*%
%TO.N,+5V*%
X208280000Y-73660000D03*
%TO.P,J4,3,Pin_3*%
%TO.N,Net-(A1-D12)*%
X205740000Y-73660000D03*
%TD*%
D12*
%TO.P,J6,1,Pin_1*%
%TO.N,+12V*%
X177800000Y-48260000D03*
D13*
%TO.P,J6,2,Pin_2*%
%TO.N,GND*%
X172720000Y-48260000D03*
%TO.P,J6,3,Pin_3*%
%TO.N,+5V*%
X167640000Y-48260000D03*
%TD*%
M02*
