%TF.GenerationSoftware,KiCad,Pcbnew,7.0.7*%
%TF.CreationDate,2023-10-23T09:45:21-04:00*%
%TF.ProjectId,RCKart,52434b61-7274-42e6-9b69-6361645f7063,rev?*%
%TF.SameCoordinates,Original*%
%TF.FileFunction,Legend,Top*%
%TF.FilePolarity,Positive*%
%FSLAX46Y46*%
G04 Gerber Fmt 4.6, Leading zero omitted, Abs format (unit mm)*
G04 Created by KiCad (PCBNEW 7.0.7) date 2023-10-23 09:45:21*
%MOMM*%
%LPD*%
G01*
G04 APERTURE LIST*
%ADD10C,0.150000*%
%ADD11C,0.120000*%
G04 APERTURE END LIST*
D10*
X196758112Y-83928009D02*
X196900969Y-83975628D01*
X196900969Y-83975628D02*
X196948588Y-84023247D01*
X196948588Y-84023247D02*
X196996207Y-84118485D01*
X196996207Y-84118485D02*
X196996207Y-84261342D01*
X196996207Y-84261342D02*
X196948588Y-84356580D01*
X196948588Y-84356580D02*
X196900969Y-84404200D01*
X196900969Y-84404200D02*
X196805731Y-84451819D01*
X196805731Y-84451819D02*
X196424779Y-84451819D01*
X196424779Y-84451819D02*
X196424779Y-83451819D01*
X196424779Y-83451819D02*
X196758112Y-83451819D01*
X196758112Y-83451819D02*
X196853350Y-83499438D01*
X196853350Y-83499438D02*
X196900969Y-83547057D01*
X196900969Y-83547057D02*
X196948588Y-83642295D01*
X196948588Y-83642295D02*
X196948588Y-83737533D01*
X196948588Y-83737533D02*
X196900969Y-83832771D01*
X196900969Y-83832771D02*
X196853350Y-83880390D01*
X196853350Y-83880390D02*
X196758112Y-83928009D01*
X196758112Y-83928009D02*
X196424779Y-83928009D01*
X197424779Y-84451819D02*
X197424779Y-83785152D01*
X197424779Y-83975628D02*
X197472398Y-83880390D01*
X197472398Y-83880390D02*
X197520017Y-83832771D01*
X197520017Y-83832771D02*
X197615255Y-83785152D01*
X197615255Y-83785152D02*
X197710493Y-83785152D01*
X198472398Y-84451819D02*
X198472398Y-83928009D01*
X198472398Y-83928009D02*
X198424779Y-83832771D01*
X198424779Y-83832771D02*
X198329541Y-83785152D01*
X198329541Y-83785152D02*
X198139065Y-83785152D01*
X198139065Y-83785152D02*
X198043827Y-83832771D01*
X198472398Y-84404200D02*
X198377160Y-84451819D01*
X198377160Y-84451819D02*
X198139065Y-84451819D01*
X198139065Y-84451819D02*
X198043827Y-84404200D01*
X198043827Y-84404200D02*
X197996208Y-84308961D01*
X197996208Y-84308961D02*
X197996208Y-84213723D01*
X197996208Y-84213723D02*
X198043827Y-84118485D01*
X198043827Y-84118485D02*
X198139065Y-84070866D01*
X198139065Y-84070866D02*
X198377160Y-84070866D01*
X198377160Y-84070866D02*
X198472398Y-84023247D01*
X198948589Y-84451819D02*
X198948589Y-83451819D01*
X199043827Y-84070866D02*
X199329541Y-84451819D01*
X199329541Y-83785152D02*
X198948589Y-84166104D01*
X200139065Y-84404200D02*
X200043827Y-84451819D01*
X200043827Y-84451819D02*
X199853351Y-84451819D01*
X199853351Y-84451819D02*
X199758113Y-84404200D01*
X199758113Y-84404200D02*
X199710494Y-84308961D01*
X199710494Y-84308961D02*
X199710494Y-83928009D01*
X199710494Y-83928009D02*
X199758113Y-83832771D01*
X199758113Y-83832771D02*
X199853351Y-83785152D01*
X199853351Y-83785152D02*
X200043827Y-83785152D01*
X200043827Y-83785152D02*
X200139065Y-83832771D01*
X200139065Y-83832771D02*
X200186684Y-83928009D01*
X200186684Y-83928009D02*
X200186684Y-84023247D01*
X200186684Y-84023247D02*
X199710494Y-84118485D01*
X201377161Y-84451819D02*
X201377161Y-83451819D01*
X201377161Y-83451819D02*
X201758113Y-83451819D01*
X201758113Y-83451819D02*
X201853351Y-83499438D01*
X201853351Y-83499438D02*
X201900970Y-83547057D01*
X201900970Y-83547057D02*
X201948589Y-83642295D01*
X201948589Y-83642295D02*
X201948589Y-83785152D01*
X201948589Y-83785152D02*
X201900970Y-83880390D01*
X201900970Y-83880390D02*
X201853351Y-83928009D01*
X201853351Y-83928009D02*
X201758113Y-83975628D01*
X201758113Y-83975628D02*
X201377161Y-83975628D01*
X202520018Y-84451819D02*
X202424780Y-84404200D01*
X202424780Y-84404200D02*
X202377161Y-84356580D01*
X202377161Y-84356580D02*
X202329542Y-84261342D01*
X202329542Y-84261342D02*
X202329542Y-83975628D01*
X202329542Y-83975628D02*
X202377161Y-83880390D01*
X202377161Y-83880390D02*
X202424780Y-83832771D01*
X202424780Y-83832771D02*
X202520018Y-83785152D01*
X202520018Y-83785152D02*
X202662875Y-83785152D01*
X202662875Y-83785152D02*
X202758113Y-83832771D01*
X202758113Y-83832771D02*
X202805732Y-83880390D01*
X202805732Y-83880390D02*
X202853351Y-83975628D01*
X202853351Y-83975628D02*
X202853351Y-84261342D01*
X202853351Y-84261342D02*
X202805732Y-84356580D01*
X202805732Y-84356580D02*
X202758113Y-84404200D01*
X202758113Y-84404200D02*
X202662875Y-84451819D01*
X202662875Y-84451819D02*
X202520018Y-84451819D01*
X203234304Y-84404200D02*
X203329542Y-84451819D01*
X203329542Y-84451819D02*
X203520018Y-84451819D01*
X203520018Y-84451819D02*
X203615256Y-84404200D01*
X203615256Y-84404200D02*
X203662875Y-84308961D01*
X203662875Y-84308961D02*
X203662875Y-84261342D01*
X203662875Y-84261342D02*
X203615256Y-84166104D01*
X203615256Y-84166104D02*
X203520018Y-84118485D01*
X203520018Y-84118485D02*
X203377161Y-84118485D01*
X203377161Y-84118485D02*
X203281923Y-84070866D01*
X203281923Y-84070866D02*
X203234304Y-83975628D01*
X203234304Y-83975628D02*
X203234304Y-83928009D01*
X203234304Y-83928009D02*
X203281923Y-83832771D01*
X203281923Y-83832771D02*
X203377161Y-83785152D01*
X203377161Y-83785152D02*
X203520018Y-83785152D01*
X203520018Y-83785152D02*
X203615256Y-83832771D01*
X161579160Y-87198200D02*
X161722017Y-87245819D01*
X161722017Y-87245819D02*
X161960112Y-87245819D01*
X161960112Y-87245819D02*
X162055350Y-87198200D01*
X162055350Y-87198200D02*
X162102969Y-87150580D01*
X162102969Y-87150580D02*
X162150588Y-87055342D01*
X162150588Y-87055342D02*
X162150588Y-86960104D01*
X162150588Y-86960104D02*
X162102969Y-86864866D01*
X162102969Y-86864866D02*
X162055350Y-86817247D01*
X162055350Y-86817247D02*
X161960112Y-86769628D01*
X161960112Y-86769628D02*
X161769636Y-86722009D01*
X161769636Y-86722009D02*
X161674398Y-86674390D01*
X161674398Y-86674390D02*
X161626779Y-86626771D01*
X161626779Y-86626771D02*
X161579160Y-86531533D01*
X161579160Y-86531533D02*
X161579160Y-86436295D01*
X161579160Y-86436295D02*
X161626779Y-86341057D01*
X161626779Y-86341057D02*
X161674398Y-86293438D01*
X161674398Y-86293438D02*
X161769636Y-86245819D01*
X161769636Y-86245819D02*
X162007731Y-86245819D01*
X162007731Y-86245819D02*
X162150588Y-86293438D01*
X162436303Y-86245819D02*
X163007731Y-86245819D01*
X162722017Y-87245819D02*
X162722017Y-86245819D01*
X163341065Y-87245819D02*
X163341065Y-86245819D01*
X163341065Y-86245819D02*
X163674398Y-86960104D01*
X163674398Y-86960104D02*
X164007731Y-86245819D01*
X164007731Y-86245819D02*
X164007731Y-87245819D01*
X164388684Y-86245819D02*
X165007731Y-86245819D01*
X165007731Y-86245819D02*
X164674398Y-86626771D01*
X164674398Y-86626771D02*
X164817255Y-86626771D01*
X164817255Y-86626771D02*
X164912493Y-86674390D01*
X164912493Y-86674390D02*
X164960112Y-86722009D01*
X164960112Y-86722009D02*
X165007731Y-86817247D01*
X165007731Y-86817247D02*
X165007731Y-87055342D01*
X165007731Y-87055342D02*
X164960112Y-87150580D01*
X164960112Y-87150580D02*
X164912493Y-87198200D01*
X164912493Y-87198200D02*
X164817255Y-87245819D01*
X164817255Y-87245819D02*
X164531541Y-87245819D01*
X164531541Y-87245819D02*
X164436303Y-87198200D01*
X164436303Y-87198200D02*
X164388684Y-87150580D01*
X165388684Y-86341057D02*
X165436303Y-86293438D01*
X165436303Y-86293438D02*
X165531541Y-86245819D01*
X165531541Y-86245819D02*
X165769636Y-86245819D01*
X165769636Y-86245819D02*
X165864874Y-86293438D01*
X165864874Y-86293438D02*
X165912493Y-86341057D01*
X165912493Y-86341057D02*
X165960112Y-86436295D01*
X165960112Y-86436295D02*
X165960112Y-86531533D01*
X165960112Y-86531533D02*
X165912493Y-86674390D01*
X165912493Y-86674390D02*
X165341065Y-87245819D01*
X165341065Y-87245819D02*
X165960112Y-87245819D01*
X185502779Y-43430866D02*
X186264684Y-43430866D01*
X185883731Y-43811819D02*
X185883731Y-43049914D01*
X186645636Y-42811819D02*
X187264683Y-42811819D01*
X187264683Y-42811819D02*
X186931350Y-43192771D01*
X186931350Y-43192771D02*
X187074207Y-43192771D01*
X187074207Y-43192771D02*
X187169445Y-43240390D01*
X187169445Y-43240390D02*
X187217064Y-43288009D01*
X187217064Y-43288009D02*
X187264683Y-43383247D01*
X187264683Y-43383247D02*
X187264683Y-43621342D01*
X187264683Y-43621342D02*
X187217064Y-43716580D01*
X187217064Y-43716580D02*
X187169445Y-43764200D01*
X187169445Y-43764200D02*
X187074207Y-43811819D01*
X187074207Y-43811819D02*
X186788493Y-43811819D01*
X186788493Y-43811819D02*
X186693255Y-43764200D01*
X186693255Y-43764200D02*
X186645636Y-43716580D01*
X187550398Y-42811819D02*
X187883731Y-43811819D01*
X187883731Y-43811819D02*
X188217064Y-42811819D01*
X188455160Y-42811819D02*
X189074207Y-42811819D01*
X189074207Y-42811819D02*
X188740874Y-43192771D01*
X188740874Y-43192771D02*
X188883731Y-43192771D01*
X188883731Y-43192771D02*
X188978969Y-43240390D01*
X188978969Y-43240390D02*
X189026588Y-43288009D01*
X189026588Y-43288009D02*
X189074207Y-43383247D01*
X189074207Y-43383247D02*
X189074207Y-43621342D01*
X189074207Y-43621342D02*
X189026588Y-43716580D01*
X189026588Y-43716580D02*
X188978969Y-43764200D01*
X188978969Y-43764200D02*
X188883731Y-43811819D01*
X188883731Y-43811819D02*
X188598017Y-43811819D01*
X188598017Y-43811819D02*
X188502779Y-43764200D01*
X188502779Y-43764200D02*
X188455160Y-43716580D01*
X197504207Y-79117819D02*
X197170874Y-78641628D01*
X196932779Y-79117819D02*
X196932779Y-78117819D01*
X196932779Y-78117819D02*
X197313731Y-78117819D01*
X197313731Y-78117819D02*
X197408969Y-78165438D01*
X197408969Y-78165438D02*
X197456588Y-78213057D01*
X197456588Y-78213057D02*
X197504207Y-78308295D01*
X197504207Y-78308295D02*
X197504207Y-78451152D01*
X197504207Y-78451152D02*
X197456588Y-78546390D01*
X197456588Y-78546390D02*
X197408969Y-78594009D01*
X197408969Y-78594009D02*
X197313731Y-78641628D01*
X197313731Y-78641628D02*
X196932779Y-78641628D01*
X198504207Y-79022580D02*
X198456588Y-79070200D01*
X198456588Y-79070200D02*
X198313731Y-79117819D01*
X198313731Y-79117819D02*
X198218493Y-79117819D01*
X198218493Y-79117819D02*
X198075636Y-79070200D01*
X198075636Y-79070200D02*
X197980398Y-78974961D01*
X197980398Y-78974961D02*
X197932779Y-78879723D01*
X197932779Y-78879723D02*
X197885160Y-78689247D01*
X197885160Y-78689247D02*
X197885160Y-78546390D01*
X197885160Y-78546390D02*
X197932779Y-78355914D01*
X197932779Y-78355914D02*
X197980398Y-78260676D01*
X197980398Y-78260676D02*
X198075636Y-78165438D01*
X198075636Y-78165438D02*
X198218493Y-78117819D01*
X198218493Y-78117819D02*
X198313731Y-78117819D01*
X198313731Y-78117819D02*
X198456588Y-78165438D01*
X198456588Y-78165438D02*
X198504207Y-78213057D01*
X199694684Y-79117819D02*
X199694684Y-78117819D01*
X199694684Y-78117819D02*
X200075636Y-78117819D01*
X200075636Y-78117819D02*
X200170874Y-78165438D01*
X200170874Y-78165438D02*
X200218493Y-78213057D01*
X200218493Y-78213057D02*
X200266112Y-78308295D01*
X200266112Y-78308295D02*
X200266112Y-78451152D01*
X200266112Y-78451152D02*
X200218493Y-78546390D01*
X200218493Y-78546390D02*
X200170874Y-78594009D01*
X200170874Y-78594009D02*
X200075636Y-78641628D01*
X200075636Y-78641628D02*
X199694684Y-78641628D01*
X200837541Y-79117819D02*
X200742303Y-79070200D01*
X200742303Y-79070200D02*
X200694684Y-79022580D01*
X200694684Y-79022580D02*
X200647065Y-78927342D01*
X200647065Y-78927342D02*
X200647065Y-78641628D01*
X200647065Y-78641628D02*
X200694684Y-78546390D01*
X200694684Y-78546390D02*
X200742303Y-78498771D01*
X200742303Y-78498771D02*
X200837541Y-78451152D01*
X200837541Y-78451152D02*
X200980398Y-78451152D01*
X200980398Y-78451152D02*
X201075636Y-78498771D01*
X201075636Y-78498771D02*
X201123255Y-78546390D01*
X201123255Y-78546390D02*
X201170874Y-78641628D01*
X201170874Y-78641628D02*
X201170874Y-78927342D01*
X201170874Y-78927342D02*
X201123255Y-79022580D01*
X201123255Y-79022580D02*
X201075636Y-79070200D01*
X201075636Y-79070200D02*
X200980398Y-79117819D01*
X200980398Y-79117819D02*
X200837541Y-79117819D01*
X201504208Y-78451152D02*
X201694684Y-79117819D01*
X201694684Y-79117819D02*
X201885160Y-78641628D01*
X201885160Y-78641628D02*
X202075636Y-79117819D01*
X202075636Y-79117819D02*
X202266112Y-78451152D01*
X203028017Y-79070200D02*
X202932779Y-79117819D01*
X202932779Y-79117819D02*
X202742303Y-79117819D01*
X202742303Y-79117819D02*
X202647065Y-79070200D01*
X202647065Y-79070200D02*
X202599446Y-78974961D01*
X202599446Y-78974961D02*
X202599446Y-78594009D01*
X202599446Y-78594009D02*
X202647065Y-78498771D01*
X202647065Y-78498771D02*
X202742303Y-78451152D01*
X202742303Y-78451152D02*
X202932779Y-78451152D01*
X202932779Y-78451152D02*
X203028017Y-78498771D01*
X203028017Y-78498771D02*
X203075636Y-78594009D01*
X203075636Y-78594009D02*
X203075636Y-78689247D01*
X203075636Y-78689247D02*
X202599446Y-78784485D01*
X203504208Y-79117819D02*
X203504208Y-78451152D01*
X203504208Y-78641628D02*
X203551827Y-78546390D01*
X203551827Y-78546390D02*
X203599446Y-78498771D01*
X203599446Y-78498771D02*
X203694684Y-78451152D01*
X203694684Y-78451152D02*
X203789922Y-78451152D01*
X142179922Y-126631819D02*
X142751350Y-126631819D01*
X142465636Y-127631819D02*
X142465636Y-126631819D01*
X143084684Y-127631819D02*
X143084684Y-126631819D01*
X143513255Y-127631819D02*
X143513255Y-127108009D01*
X143513255Y-127108009D02*
X143465636Y-127012771D01*
X143465636Y-127012771D02*
X143370398Y-126965152D01*
X143370398Y-126965152D02*
X143227541Y-126965152D01*
X143227541Y-126965152D02*
X143132303Y-127012771D01*
X143132303Y-127012771D02*
X143084684Y-127060390D01*
X143989446Y-127631819D02*
X143989446Y-126965152D01*
X143989446Y-127155628D02*
X144037065Y-127060390D01*
X144037065Y-127060390D02*
X144084684Y-127012771D01*
X144084684Y-127012771D02*
X144179922Y-126965152D01*
X144179922Y-126965152D02*
X144275160Y-126965152D01*
X144751351Y-127631819D02*
X144656113Y-127584200D01*
X144656113Y-127584200D02*
X144608494Y-127536580D01*
X144608494Y-127536580D02*
X144560875Y-127441342D01*
X144560875Y-127441342D02*
X144560875Y-127155628D01*
X144560875Y-127155628D02*
X144608494Y-127060390D01*
X144608494Y-127060390D02*
X144656113Y-127012771D01*
X144656113Y-127012771D02*
X144751351Y-126965152D01*
X144751351Y-126965152D02*
X144894208Y-126965152D01*
X144894208Y-126965152D02*
X144989446Y-127012771D01*
X144989446Y-127012771D02*
X145037065Y-127060390D01*
X145037065Y-127060390D02*
X145084684Y-127155628D01*
X145084684Y-127155628D02*
X145084684Y-127441342D01*
X145084684Y-127441342D02*
X145037065Y-127536580D01*
X145037065Y-127536580D02*
X144989446Y-127584200D01*
X144989446Y-127584200D02*
X144894208Y-127631819D01*
X144894208Y-127631819D02*
X144751351Y-127631819D01*
X145370399Y-126965152D02*
X145751351Y-126965152D01*
X145513256Y-126631819D02*
X145513256Y-127488961D01*
X145513256Y-127488961D02*
X145560875Y-127584200D01*
X145560875Y-127584200D02*
X145656113Y-127631819D01*
X145656113Y-127631819D02*
X145751351Y-127631819D01*
X145941828Y-126965152D02*
X146322780Y-126965152D01*
X146084685Y-126631819D02*
X146084685Y-127488961D01*
X146084685Y-127488961D02*
X146132304Y-127584200D01*
X146132304Y-127584200D02*
X146227542Y-127631819D01*
X146227542Y-127631819D02*
X146322780Y-127631819D01*
X146798971Y-127631819D02*
X146703733Y-127584200D01*
X146703733Y-127584200D02*
X146656114Y-127488961D01*
X146656114Y-127488961D02*
X146656114Y-126631819D01*
X147560876Y-127584200D02*
X147465638Y-127631819D01*
X147465638Y-127631819D02*
X147275162Y-127631819D01*
X147275162Y-127631819D02*
X147179924Y-127584200D01*
X147179924Y-127584200D02*
X147132305Y-127488961D01*
X147132305Y-127488961D02*
X147132305Y-127108009D01*
X147132305Y-127108009D02*
X147179924Y-127012771D01*
X147179924Y-127012771D02*
X147275162Y-126965152D01*
X147275162Y-126965152D02*
X147465638Y-126965152D01*
X147465638Y-126965152D02*
X147560876Y-127012771D01*
X147560876Y-127012771D02*
X147608495Y-127108009D01*
X147608495Y-127108009D02*
X147608495Y-127203247D01*
X147608495Y-127203247D02*
X147132305Y-127298485D01*
X201838112Y-61322009D02*
X201980969Y-61369628D01*
X201980969Y-61369628D02*
X202028588Y-61417247D01*
X202028588Y-61417247D02*
X202076207Y-61512485D01*
X202076207Y-61512485D02*
X202076207Y-61655342D01*
X202076207Y-61655342D02*
X202028588Y-61750580D01*
X202028588Y-61750580D02*
X201980969Y-61798200D01*
X201980969Y-61798200D02*
X201885731Y-61845819D01*
X201885731Y-61845819D02*
X201504779Y-61845819D01*
X201504779Y-61845819D02*
X201504779Y-60845819D01*
X201504779Y-60845819D02*
X201838112Y-60845819D01*
X201838112Y-60845819D02*
X201933350Y-60893438D01*
X201933350Y-60893438D02*
X201980969Y-60941057D01*
X201980969Y-60941057D02*
X202028588Y-61036295D01*
X202028588Y-61036295D02*
X202028588Y-61131533D01*
X202028588Y-61131533D02*
X201980969Y-61226771D01*
X201980969Y-61226771D02*
X201933350Y-61274390D01*
X201933350Y-61274390D02*
X201838112Y-61322009D01*
X201838112Y-61322009D02*
X201504779Y-61322009D01*
X203076207Y-61845819D02*
X202742874Y-61369628D01*
X202504779Y-61845819D02*
X202504779Y-60845819D01*
X202504779Y-60845819D02*
X202885731Y-60845819D01*
X202885731Y-60845819D02*
X202980969Y-60893438D01*
X202980969Y-60893438D02*
X203028588Y-60941057D01*
X203028588Y-60941057D02*
X203076207Y-61036295D01*
X203076207Y-61036295D02*
X203076207Y-61179152D01*
X203076207Y-61179152D02*
X203028588Y-61274390D01*
X203028588Y-61274390D02*
X202980969Y-61322009D01*
X202980969Y-61322009D02*
X202885731Y-61369628D01*
X202885731Y-61369628D02*
X202504779Y-61369628D01*
X204838112Y-61845819D02*
X204504779Y-61369628D01*
X204266684Y-61845819D02*
X204266684Y-60845819D01*
X204266684Y-60845819D02*
X204647636Y-60845819D01*
X204647636Y-60845819D02*
X204742874Y-60893438D01*
X204742874Y-60893438D02*
X204790493Y-60941057D01*
X204790493Y-60941057D02*
X204838112Y-61036295D01*
X204838112Y-61036295D02*
X204838112Y-61179152D01*
X204838112Y-61179152D02*
X204790493Y-61274390D01*
X204790493Y-61274390D02*
X204742874Y-61322009D01*
X204742874Y-61322009D02*
X204647636Y-61369628D01*
X204647636Y-61369628D02*
X204266684Y-61369628D01*
X205123827Y-60845819D02*
X205457160Y-61845819D01*
X205457160Y-61845819D02*
X205790493Y-60845819D01*
X206076208Y-61798200D02*
X206219065Y-61845819D01*
X206219065Y-61845819D02*
X206457160Y-61845819D01*
X206457160Y-61845819D02*
X206552398Y-61798200D01*
X206552398Y-61798200D02*
X206600017Y-61750580D01*
X206600017Y-61750580D02*
X206647636Y-61655342D01*
X206647636Y-61655342D02*
X206647636Y-61560104D01*
X206647636Y-61560104D02*
X206600017Y-61464866D01*
X206600017Y-61464866D02*
X206552398Y-61417247D01*
X206552398Y-61417247D02*
X206457160Y-61369628D01*
X206457160Y-61369628D02*
X206266684Y-61322009D01*
X206266684Y-61322009D02*
X206171446Y-61274390D01*
X206171446Y-61274390D02*
X206123827Y-61226771D01*
X206123827Y-61226771D02*
X206076208Y-61131533D01*
X206076208Y-61131533D02*
X206076208Y-61036295D01*
X206076208Y-61036295D02*
X206123827Y-60941057D01*
X206123827Y-60941057D02*
X206171446Y-60893438D01*
X206171446Y-60893438D02*
X206266684Y-60845819D01*
X206266684Y-60845819D02*
X206504779Y-60845819D01*
X206504779Y-60845819D02*
X206647636Y-60893438D01*
X192630588Y-42859438D02*
X192535350Y-42811819D01*
X192535350Y-42811819D02*
X192392493Y-42811819D01*
X192392493Y-42811819D02*
X192249636Y-42859438D01*
X192249636Y-42859438D02*
X192154398Y-42954676D01*
X192154398Y-42954676D02*
X192106779Y-43049914D01*
X192106779Y-43049914D02*
X192059160Y-43240390D01*
X192059160Y-43240390D02*
X192059160Y-43383247D01*
X192059160Y-43383247D02*
X192106779Y-43573723D01*
X192106779Y-43573723D02*
X192154398Y-43668961D01*
X192154398Y-43668961D02*
X192249636Y-43764200D01*
X192249636Y-43764200D02*
X192392493Y-43811819D01*
X192392493Y-43811819D02*
X192487731Y-43811819D01*
X192487731Y-43811819D02*
X192630588Y-43764200D01*
X192630588Y-43764200D02*
X192678207Y-43716580D01*
X192678207Y-43716580D02*
X192678207Y-43383247D01*
X192678207Y-43383247D02*
X192487731Y-43383247D01*
X193106779Y-43811819D02*
X193106779Y-42811819D01*
X193106779Y-42811819D02*
X193678207Y-43811819D01*
X193678207Y-43811819D02*
X193678207Y-42811819D01*
X194154398Y-43811819D02*
X194154398Y-42811819D01*
X194154398Y-42811819D02*
X194392493Y-42811819D01*
X194392493Y-42811819D02*
X194535350Y-42859438D01*
X194535350Y-42859438D02*
X194630588Y-42954676D01*
X194630588Y-42954676D02*
X194678207Y-43049914D01*
X194678207Y-43049914D02*
X194725826Y-43240390D01*
X194725826Y-43240390D02*
X194725826Y-43383247D01*
X194725826Y-43383247D02*
X194678207Y-43573723D01*
X194678207Y-43573723D02*
X194630588Y-43668961D01*
X194630588Y-43668961D02*
X194535350Y-43764200D01*
X194535350Y-43764200D02*
X194392493Y-43811819D01*
X194392493Y-43811819D02*
X194154398Y-43811819D01*
X172056588Y-42859438D02*
X171961350Y-42811819D01*
X171961350Y-42811819D02*
X171818493Y-42811819D01*
X171818493Y-42811819D02*
X171675636Y-42859438D01*
X171675636Y-42859438D02*
X171580398Y-42954676D01*
X171580398Y-42954676D02*
X171532779Y-43049914D01*
X171532779Y-43049914D02*
X171485160Y-43240390D01*
X171485160Y-43240390D02*
X171485160Y-43383247D01*
X171485160Y-43383247D02*
X171532779Y-43573723D01*
X171532779Y-43573723D02*
X171580398Y-43668961D01*
X171580398Y-43668961D02*
X171675636Y-43764200D01*
X171675636Y-43764200D02*
X171818493Y-43811819D01*
X171818493Y-43811819D02*
X171913731Y-43811819D01*
X171913731Y-43811819D02*
X172056588Y-43764200D01*
X172056588Y-43764200D02*
X172104207Y-43716580D01*
X172104207Y-43716580D02*
X172104207Y-43383247D01*
X172104207Y-43383247D02*
X171913731Y-43383247D01*
X172532779Y-43811819D02*
X172532779Y-42811819D01*
X172532779Y-42811819D02*
X173104207Y-43811819D01*
X173104207Y-43811819D02*
X173104207Y-42811819D01*
X173580398Y-43811819D02*
X173580398Y-42811819D01*
X173580398Y-42811819D02*
X173818493Y-42811819D01*
X173818493Y-42811819D02*
X173961350Y-42859438D01*
X173961350Y-42859438D02*
X174056588Y-42954676D01*
X174056588Y-42954676D02*
X174104207Y-43049914D01*
X174104207Y-43049914D02*
X174151826Y-43240390D01*
X174151826Y-43240390D02*
X174151826Y-43383247D01*
X174151826Y-43383247D02*
X174104207Y-43573723D01*
X174104207Y-43573723D02*
X174056588Y-43668961D01*
X174056588Y-43668961D02*
X173961350Y-43764200D01*
X173961350Y-43764200D02*
X173818493Y-43811819D01*
X173818493Y-43811819D02*
X173580398Y-43811819D01*
X175850779Y-43430866D02*
X176612684Y-43430866D01*
X176231731Y-43811819D02*
X176231731Y-43049914D01*
X177612683Y-43811819D02*
X177041255Y-43811819D01*
X177326969Y-43811819D02*
X177326969Y-42811819D01*
X177326969Y-42811819D02*
X177231731Y-42954676D01*
X177231731Y-42954676D02*
X177136493Y-43049914D01*
X177136493Y-43049914D02*
X177041255Y-43097533D01*
X177993636Y-42907057D02*
X178041255Y-42859438D01*
X178041255Y-42859438D02*
X178136493Y-42811819D01*
X178136493Y-42811819D02*
X178374588Y-42811819D01*
X178374588Y-42811819D02*
X178469826Y-42859438D01*
X178469826Y-42859438D02*
X178517445Y-42907057D01*
X178517445Y-42907057D02*
X178565064Y-43002295D01*
X178565064Y-43002295D02*
X178565064Y-43097533D01*
X178565064Y-43097533D02*
X178517445Y-43240390D01*
X178517445Y-43240390D02*
X177946017Y-43811819D01*
X177946017Y-43811819D02*
X178565064Y-43811819D01*
X178850779Y-42811819D02*
X179184112Y-43811819D01*
X179184112Y-43811819D02*
X179517445Y-42811819D01*
X195107160Y-74244200D02*
X195250017Y-74291819D01*
X195250017Y-74291819D02*
X195488112Y-74291819D01*
X195488112Y-74291819D02*
X195583350Y-74244200D01*
X195583350Y-74244200D02*
X195630969Y-74196580D01*
X195630969Y-74196580D02*
X195678588Y-74101342D01*
X195678588Y-74101342D02*
X195678588Y-74006104D01*
X195678588Y-74006104D02*
X195630969Y-73910866D01*
X195630969Y-73910866D02*
X195583350Y-73863247D01*
X195583350Y-73863247D02*
X195488112Y-73815628D01*
X195488112Y-73815628D02*
X195297636Y-73768009D01*
X195297636Y-73768009D02*
X195202398Y-73720390D01*
X195202398Y-73720390D02*
X195154779Y-73672771D01*
X195154779Y-73672771D02*
X195107160Y-73577533D01*
X195107160Y-73577533D02*
X195107160Y-73482295D01*
X195107160Y-73482295D02*
X195154779Y-73387057D01*
X195154779Y-73387057D02*
X195202398Y-73339438D01*
X195202398Y-73339438D02*
X195297636Y-73291819D01*
X195297636Y-73291819D02*
X195535731Y-73291819D01*
X195535731Y-73291819D02*
X195678588Y-73339438D01*
X195964303Y-73625152D02*
X196345255Y-73625152D01*
X196107160Y-73291819D02*
X196107160Y-74148961D01*
X196107160Y-74148961D02*
X196154779Y-74244200D01*
X196154779Y-74244200D02*
X196250017Y-74291819D01*
X196250017Y-74291819D02*
X196345255Y-74291819D01*
X196678589Y-74291819D02*
X196678589Y-73625152D01*
X196678589Y-73815628D02*
X196726208Y-73720390D01*
X196726208Y-73720390D02*
X196773827Y-73672771D01*
X196773827Y-73672771D02*
X196869065Y-73625152D01*
X196869065Y-73625152D02*
X196964303Y-73625152D01*
X198059542Y-73768009D02*
X198392875Y-73768009D01*
X198535732Y-74291819D02*
X198059542Y-74291819D01*
X198059542Y-74291819D02*
X198059542Y-73291819D01*
X198059542Y-73291819D02*
X198535732Y-73291819D01*
X198964304Y-73625152D02*
X198964304Y-74291819D01*
X198964304Y-73720390D02*
X199011923Y-73672771D01*
X199011923Y-73672771D02*
X199107161Y-73625152D01*
X199107161Y-73625152D02*
X199250018Y-73625152D01*
X199250018Y-73625152D02*
X199345256Y-73672771D01*
X199345256Y-73672771D02*
X199392875Y-73768009D01*
X199392875Y-73768009D02*
X199392875Y-74291819D01*
X200297637Y-74244200D02*
X200202399Y-74291819D01*
X200202399Y-74291819D02*
X200011923Y-74291819D01*
X200011923Y-74291819D02*
X199916685Y-74244200D01*
X199916685Y-74244200D02*
X199869066Y-74196580D01*
X199869066Y-74196580D02*
X199821447Y-74101342D01*
X199821447Y-74101342D02*
X199821447Y-73815628D01*
X199821447Y-73815628D02*
X199869066Y-73720390D01*
X199869066Y-73720390D02*
X199916685Y-73672771D01*
X199916685Y-73672771D02*
X200011923Y-73625152D01*
X200011923Y-73625152D02*
X200202399Y-73625152D01*
X200202399Y-73625152D02*
X200297637Y-73672771D01*
X200869066Y-74291819D02*
X200773828Y-74244200D01*
X200773828Y-74244200D02*
X200726209Y-74196580D01*
X200726209Y-74196580D02*
X200678590Y-74101342D01*
X200678590Y-74101342D02*
X200678590Y-73815628D01*
X200678590Y-73815628D02*
X200726209Y-73720390D01*
X200726209Y-73720390D02*
X200773828Y-73672771D01*
X200773828Y-73672771D02*
X200869066Y-73625152D01*
X200869066Y-73625152D02*
X201011923Y-73625152D01*
X201011923Y-73625152D02*
X201107161Y-73672771D01*
X201107161Y-73672771D02*
X201154780Y-73720390D01*
X201154780Y-73720390D02*
X201202399Y-73815628D01*
X201202399Y-73815628D02*
X201202399Y-74101342D01*
X201202399Y-74101342D02*
X201154780Y-74196580D01*
X201154780Y-74196580D02*
X201107161Y-74244200D01*
X201107161Y-74244200D02*
X201011923Y-74291819D01*
X201011923Y-74291819D02*
X200869066Y-74291819D01*
X202059542Y-74291819D02*
X202059542Y-73291819D01*
X202059542Y-74244200D02*
X201964304Y-74291819D01*
X201964304Y-74291819D02*
X201773828Y-74291819D01*
X201773828Y-74291819D02*
X201678590Y-74244200D01*
X201678590Y-74244200D02*
X201630971Y-74196580D01*
X201630971Y-74196580D02*
X201583352Y-74101342D01*
X201583352Y-74101342D02*
X201583352Y-73815628D01*
X201583352Y-73815628D02*
X201630971Y-73720390D01*
X201630971Y-73720390D02*
X201678590Y-73672771D01*
X201678590Y-73672771D02*
X201773828Y-73625152D01*
X201773828Y-73625152D02*
X201964304Y-73625152D01*
X201964304Y-73625152D02*
X202059542Y-73672771D01*
X202916685Y-74244200D02*
X202821447Y-74291819D01*
X202821447Y-74291819D02*
X202630971Y-74291819D01*
X202630971Y-74291819D02*
X202535733Y-74244200D01*
X202535733Y-74244200D02*
X202488114Y-74148961D01*
X202488114Y-74148961D02*
X202488114Y-73768009D01*
X202488114Y-73768009D02*
X202535733Y-73672771D01*
X202535733Y-73672771D02*
X202630971Y-73625152D01*
X202630971Y-73625152D02*
X202821447Y-73625152D01*
X202821447Y-73625152D02*
X202916685Y-73672771D01*
X202916685Y-73672771D02*
X202964304Y-73768009D01*
X202964304Y-73768009D02*
X202964304Y-73863247D01*
X202964304Y-73863247D02*
X202488114Y-73958485D01*
X203392876Y-74291819D02*
X203392876Y-73625152D01*
X203392876Y-73815628D02*
X203440495Y-73720390D01*
X203440495Y-73720390D02*
X203488114Y-73672771D01*
X203488114Y-73672771D02*
X203583352Y-73625152D01*
X203583352Y-73625152D02*
X203678590Y-73625152D01*
X165944779Y-43430866D02*
X166706684Y-43430866D01*
X166325731Y-43811819D02*
X166325731Y-43049914D01*
X167659064Y-42811819D02*
X167182874Y-42811819D01*
X167182874Y-42811819D02*
X167135255Y-43288009D01*
X167135255Y-43288009D02*
X167182874Y-43240390D01*
X167182874Y-43240390D02*
X167278112Y-43192771D01*
X167278112Y-43192771D02*
X167516207Y-43192771D01*
X167516207Y-43192771D02*
X167611445Y-43240390D01*
X167611445Y-43240390D02*
X167659064Y-43288009D01*
X167659064Y-43288009D02*
X167706683Y-43383247D01*
X167706683Y-43383247D02*
X167706683Y-43621342D01*
X167706683Y-43621342D02*
X167659064Y-43716580D01*
X167659064Y-43716580D02*
X167611445Y-43764200D01*
X167611445Y-43764200D02*
X167516207Y-43811819D01*
X167516207Y-43811819D02*
X167278112Y-43811819D01*
X167278112Y-43811819D02*
X167182874Y-43764200D01*
X167182874Y-43764200D02*
X167135255Y-43716580D01*
X167992398Y-42811819D02*
X168325731Y-43811819D01*
X168325731Y-43811819D02*
X168659064Y-42811819D01*
X196885160Y-68910200D02*
X197028017Y-68957819D01*
X197028017Y-68957819D02*
X197266112Y-68957819D01*
X197266112Y-68957819D02*
X197361350Y-68910200D01*
X197361350Y-68910200D02*
X197408969Y-68862580D01*
X197408969Y-68862580D02*
X197456588Y-68767342D01*
X197456588Y-68767342D02*
X197456588Y-68672104D01*
X197456588Y-68672104D02*
X197408969Y-68576866D01*
X197408969Y-68576866D02*
X197361350Y-68529247D01*
X197361350Y-68529247D02*
X197266112Y-68481628D01*
X197266112Y-68481628D02*
X197075636Y-68434009D01*
X197075636Y-68434009D02*
X196980398Y-68386390D01*
X196980398Y-68386390D02*
X196932779Y-68338771D01*
X196932779Y-68338771D02*
X196885160Y-68243533D01*
X196885160Y-68243533D02*
X196885160Y-68148295D01*
X196885160Y-68148295D02*
X196932779Y-68053057D01*
X196932779Y-68053057D02*
X196980398Y-68005438D01*
X196980398Y-68005438D02*
X197075636Y-67957819D01*
X197075636Y-67957819D02*
X197313731Y-67957819D01*
X197313731Y-67957819D02*
X197456588Y-68005438D01*
X197742303Y-68291152D02*
X198123255Y-68291152D01*
X197885160Y-67957819D02*
X197885160Y-68814961D01*
X197885160Y-68814961D02*
X197932779Y-68910200D01*
X197932779Y-68910200D02*
X198028017Y-68957819D01*
X198028017Y-68957819D02*
X198123255Y-68957819D01*
X198456589Y-68957819D02*
X198456589Y-68291152D01*
X198456589Y-68481628D02*
X198504208Y-68386390D01*
X198504208Y-68386390D02*
X198551827Y-68338771D01*
X198551827Y-68338771D02*
X198647065Y-68291152D01*
X198647065Y-68291152D02*
X198742303Y-68291152D01*
X199837542Y-68957819D02*
X199837542Y-67957819D01*
X199837542Y-67957819D02*
X200170875Y-68672104D01*
X200170875Y-68672104D02*
X200504208Y-67957819D01*
X200504208Y-67957819D02*
X200504208Y-68957819D01*
X201123256Y-68957819D02*
X201028018Y-68910200D01*
X201028018Y-68910200D02*
X200980399Y-68862580D01*
X200980399Y-68862580D02*
X200932780Y-68767342D01*
X200932780Y-68767342D02*
X200932780Y-68481628D01*
X200932780Y-68481628D02*
X200980399Y-68386390D01*
X200980399Y-68386390D02*
X201028018Y-68338771D01*
X201028018Y-68338771D02*
X201123256Y-68291152D01*
X201123256Y-68291152D02*
X201266113Y-68291152D01*
X201266113Y-68291152D02*
X201361351Y-68338771D01*
X201361351Y-68338771D02*
X201408970Y-68386390D01*
X201408970Y-68386390D02*
X201456589Y-68481628D01*
X201456589Y-68481628D02*
X201456589Y-68767342D01*
X201456589Y-68767342D02*
X201408970Y-68862580D01*
X201408970Y-68862580D02*
X201361351Y-68910200D01*
X201361351Y-68910200D02*
X201266113Y-68957819D01*
X201266113Y-68957819D02*
X201123256Y-68957819D01*
X201742304Y-68291152D02*
X202123256Y-68291152D01*
X201885161Y-67957819D02*
X201885161Y-68814961D01*
X201885161Y-68814961D02*
X201932780Y-68910200D01*
X201932780Y-68910200D02*
X202028018Y-68957819D01*
X202028018Y-68957819D02*
X202123256Y-68957819D01*
X202599447Y-68957819D02*
X202504209Y-68910200D01*
X202504209Y-68910200D02*
X202456590Y-68862580D01*
X202456590Y-68862580D02*
X202408971Y-68767342D01*
X202408971Y-68767342D02*
X202408971Y-68481628D01*
X202408971Y-68481628D02*
X202456590Y-68386390D01*
X202456590Y-68386390D02*
X202504209Y-68338771D01*
X202504209Y-68338771D02*
X202599447Y-68291152D01*
X202599447Y-68291152D02*
X202742304Y-68291152D01*
X202742304Y-68291152D02*
X202837542Y-68338771D01*
X202837542Y-68338771D02*
X202885161Y-68386390D01*
X202885161Y-68386390D02*
X202932780Y-68481628D01*
X202932780Y-68481628D02*
X202932780Y-68767342D01*
X202932780Y-68767342D02*
X202885161Y-68862580D01*
X202885161Y-68862580D02*
X202837542Y-68910200D01*
X202837542Y-68910200D02*
X202742304Y-68957819D01*
X202742304Y-68957819D02*
X202599447Y-68957819D01*
X203361352Y-68957819D02*
X203361352Y-68291152D01*
X203361352Y-68481628D02*
X203408971Y-68386390D01*
X203408971Y-68386390D02*
X203456590Y-68338771D01*
X203456590Y-68338771D02*
X203551828Y-68291152D01*
X203551828Y-68291152D02*
X203647066Y-68291152D01*
X201838112Y-58528009D02*
X201980969Y-58575628D01*
X201980969Y-58575628D02*
X202028588Y-58623247D01*
X202028588Y-58623247D02*
X202076207Y-58718485D01*
X202076207Y-58718485D02*
X202076207Y-58861342D01*
X202076207Y-58861342D02*
X202028588Y-58956580D01*
X202028588Y-58956580D02*
X201980969Y-59004200D01*
X201980969Y-59004200D02*
X201885731Y-59051819D01*
X201885731Y-59051819D02*
X201504779Y-59051819D01*
X201504779Y-59051819D02*
X201504779Y-58051819D01*
X201504779Y-58051819D02*
X201838112Y-58051819D01*
X201838112Y-58051819D02*
X201933350Y-58099438D01*
X201933350Y-58099438D02*
X201980969Y-58147057D01*
X201980969Y-58147057D02*
X202028588Y-58242295D01*
X202028588Y-58242295D02*
X202028588Y-58337533D01*
X202028588Y-58337533D02*
X201980969Y-58432771D01*
X201980969Y-58432771D02*
X201933350Y-58480390D01*
X201933350Y-58480390D02*
X201838112Y-58528009D01*
X201838112Y-58528009D02*
X201504779Y-58528009D01*
X203076207Y-59051819D02*
X202742874Y-58575628D01*
X202504779Y-59051819D02*
X202504779Y-58051819D01*
X202504779Y-58051819D02*
X202885731Y-58051819D01*
X202885731Y-58051819D02*
X202980969Y-58099438D01*
X202980969Y-58099438D02*
X203028588Y-58147057D01*
X203028588Y-58147057D02*
X203076207Y-58242295D01*
X203076207Y-58242295D02*
X203076207Y-58385152D01*
X203076207Y-58385152D02*
X203028588Y-58480390D01*
X203028588Y-58480390D02*
X202980969Y-58528009D01*
X202980969Y-58528009D02*
X202885731Y-58575628D01*
X202885731Y-58575628D02*
X202504779Y-58575628D01*
X204600017Y-58528009D02*
X204266684Y-58528009D01*
X204266684Y-59051819D02*
X204266684Y-58051819D01*
X204266684Y-58051819D02*
X204742874Y-58051819D01*
X205028589Y-58051819D02*
X205266684Y-59051819D01*
X205266684Y-59051819D02*
X205457160Y-58337533D01*
X205457160Y-58337533D02*
X205647636Y-59051819D01*
X205647636Y-59051819D02*
X205885732Y-58051819D01*
X206266684Y-59051819D02*
X206266684Y-58051819D01*
X206266684Y-58051819D02*
X206504779Y-58051819D01*
X206504779Y-58051819D02*
X206647636Y-58099438D01*
X206647636Y-58099438D02*
X206742874Y-58194676D01*
X206742874Y-58194676D02*
X206790493Y-58289914D01*
X206790493Y-58289914D02*
X206838112Y-58480390D01*
X206838112Y-58480390D02*
X206838112Y-58623247D01*
X206838112Y-58623247D02*
X206790493Y-58813723D01*
X206790493Y-58813723D02*
X206742874Y-58908961D01*
X206742874Y-58908961D02*
X206647636Y-59004200D01*
X206647636Y-59004200D02*
X206504779Y-59051819D01*
X206504779Y-59051819D02*
X206266684Y-59051819D01*
X152754493Y-127377819D02*
X152181636Y-127377819D01*
X152468064Y-127377819D02*
X152468064Y-126377819D01*
X152468064Y-126377819D02*
X152372588Y-126520676D01*
X152372588Y-126520676D02*
X152277112Y-126615914D01*
X152277112Y-126615914D02*
X152181636Y-126663533D01*
X154664018Y-126473057D02*
X154711756Y-126425438D01*
X154711756Y-126425438D02*
X154807232Y-126377819D01*
X154807232Y-126377819D02*
X155045923Y-126377819D01*
X155045923Y-126377819D02*
X155141399Y-126425438D01*
X155141399Y-126425438D02*
X155189137Y-126473057D01*
X155189137Y-126473057D02*
X155236875Y-126568295D01*
X155236875Y-126568295D02*
X155236875Y-126663533D01*
X155236875Y-126663533D02*
X155189137Y-126806390D01*
X155189137Y-126806390D02*
X154616280Y-127377819D01*
X154616280Y-127377819D02*
X155236875Y-127377819D01*
X157098662Y-126377819D02*
X157719257Y-126377819D01*
X157719257Y-126377819D02*
X157385090Y-126758771D01*
X157385090Y-126758771D02*
X157528305Y-126758771D01*
X157528305Y-126758771D02*
X157623781Y-126806390D01*
X157623781Y-126806390D02*
X157671519Y-126854009D01*
X157671519Y-126854009D02*
X157719257Y-126949247D01*
X157719257Y-126949247D02*
X157719257Y-127187342D01*
X157719257Y-127187342D02*
X157671519Y-127282580D01*
X157671519Y-127282580D02*
X157623781Y-127330200D01*
X157623781Y-127330200D02*
X157528305Y-127377819D01*
X157528305Y-127377819D02*
X157241876Y-127377819D01*
X157241876Y-127377819D02*
X157146400Y-127330200D01*
X157146400Y-127330200D02*
X157098662Y-127282580D01*
X160106163Y-126711152D02*
X160106163Y-127377819D01*
X159867472Y-126330200D02*
X159628782Y-127044485D01*
X159628782Y-127044485D02*
X160249377Y-127044485D01*
X162636283Y-126377819D02*
X162158902Y-126377819D01*
X162158902Y-126377819D02*
X162111164Y-126854009D01*
X162111164Y-126854009D02*
X162158902Y-126806390D01*
X162158902Y-126806390D02*
X162254378Y-126758771D01*
X162254378Y-126758771D02*
X162493069Y-126758771D01*
X162493069Y-126758771D02*
X162588545Y-126806390D01*
X162588545Y-126806390D02*
X162636283Y-126854009D01*
X162636283Y-126854009D02*
X162684021Y-126949247D01*
X162684021Y-126949247D02*
X162684021Y-127187342D01*
X162684021Y-127187342D02*
X162636283Y-127282580D01*
X162636283Y-127282580D02*
X162588545Y-127330200D01*
X162588545Y-127330200D02*
X162493069Y-127377819D01*
X162493069Y-127377819D02*
X162254378Y-127377819D01*
X162254378Y-127377819D02*
X162158902Y-127330200D01*
X162158902Y-127330200D02*
X162111164Y-127282580D01*
X165070927Y-126377819D02*
X164879974Y-126377819D01*
X164879974Y-126377819D02*
X164784498Y-126425438D01*
X164784498Y-126425438D02*
X164736760Y-126473057D01*
X164736760Y-126473057D02*
X164641284Y-126615914D01*
X164641284Y-126615914D02*
X164593546Y-126806390D01*
X164593546Y-126806390D02*
X164593546Y-127187342D01*
X164593546Y-127187342D02*
X164641284Y-127282580D01*
X164641284Y-127282580D02*
X164689022Y-127330200D01*
X164689022Y-127330200D02*
X164784498Y-127377819D01*
X164784498Y-127377819D02*
X164975451Y-127377819D01*
X164975451Y-127377819D02*
X165070927Y-127330200D01*
X165070927Y-127330200D02*
X165118665Y-127282580D01*
X165118665Y-127282580D02*
X165166403Y-127187342D01*
X165166403Y-127187342D02*
X165166403Y-126949247D01*
X165166403Y-126949247D02*
X165118665Y-126854009D01*
X165118665Y-126854009D02*
X165070927Y-126806390D01*
X165070927Y-126806390D02*
X164975451Y-126758771D01*
X164975451Y-126758771D02*
X164784498Y-126758771D01*
X164784498Y-126758771D02*
X164689022Y-126806390D01*
X164689022Y-126806390D02*
X164641284Y-126854009D01*
X164641284Y-126854009D02*
X164593546Y-126949247D01*
X167028190Y-126377819D02*
X167696523Y-126377819D01*
X167696523Y-126377819D02*
X167266880Y-127377819D01*
X169749262Y-126806390D02*
X169653786Y-126758771D01*
X169653786Y-126758771D02*
X169606048Y-126711152D01*
X169606048Y-126711152D02*
X169558310Y-126615914D01*
X169558310Y-126615914D02*
X169558310Y-126568295D01*
X169558310Y-126568295D02*
X169606048Y-126473057D01*
X169606048Y-126473057D02*
X169653786Y-126425438D01*
X169653786Y-126425438D02*
X169749262Y-126377819D01*
X169749262Y-126377819D02*
X169940215Y-126377819D01*
X169940215Y-126377819D02*
X170035691Y-126425438D01*
X170035691Y-126425438D02*
X170083429Y-126473057D01*
X170083429Y-126473057D02*
X170131167Y-126568295D01*
X170131167Y-126568295D02*
X170131167Y-126615914D01*
X170131167Y-126615914D02*
X170083429Y-126711152D01*
X170083429Y-126711152D02*
X170035691Y-126758771D01*
X170035691Y-126758771D02*
X169940215Y-126806390D01*
X169940215Y-126806390D02*
X169749262Y-126806390D01*
X169749262Y-126806390D02*
X169653786Y-126854009D01*
X169653786Y-126854009D02*
X169606048Y-126901628D01*
X169606048Y-126901628D02*
X169558310Y-126996866D01*
X169558310Y-126996866D02*
X169558310Y-127187342D01*
X169558310Y-127187342D02*
X169606048Y-127282580D01*
X169606048Y-127282580D02*
X169653786Y-127330200D01*
X169653786Y-127330200D02*
X169749262Y-127377819D01*
X169749262Y-127377819D02*
X169940215Y-127377819D01*
X169940215Y-127377819D02*
X170035691Y-127330200D01*
X170035691Y-127330200D02*
X170083429Y-127282580D01*
X170083429Y-127282580D02*
X170131167Y-127187342D01*
X170131167Y-127187342D02*
X170131167Y-126996866D01*
X170131167Y-126996866D02*
X170083429Y-126901628D01*
X170083429Y-126901628D02*
X170035691Y-126854009D01*
X170035691Y-126854009D02*
X169940215Y-126806390D01*
X172136168Y-127377819D02*
X172327120Y-127377819D01*
X172327120Y-127377819D02*
X172422597Y-127330200D01*
X172422597Y-127330200D02*
X172470335Y-127282580D01*
X172470335Y-127282580D02*
X172565811Y-127139723D01*
X172565811Y-127139723D02*
X172613549Y-126949247D01*
X172613549Y-126949247D02*
X172613549Y-126568295D01*
X172613549Y-126568295D02*
X172565811Y-126473057D01*
X172565811Y-126473057D02*
X172518073Y-126425438D01*
X172518073Y-126425438D02*
X172422597Y-126377819D01*
X172422597Y-126377819D02*
X172231644Y-126377819D01*
X172231644Y-126377819D02*
X172136168Y-126425438D01*
X172136168Y-126425438D02*
X172088430Y-126473057D01*
X172088430Y-126473057D02*
X172040692Y-126568295D01*
X172040692Y-126568295D02*
X172040692Y-126806390D01*
X172040692Y-126806390D02*
X172088430Y-126901628D01*
X172088430Y-126901628D02*
X172136168Y-126949247D01*
X172136168Y-126949247D02*
X172231644Y-126996866D01*
X172231644Y-126996866D02*
X172422597Y-126996866D01*
X172422597Y-126996866D02*
X172518073Y-126949247D01*
X172518073Y-126949247D02*
X172565811Y-126901628D01*
X172565811Y-126901628D02*
X172613549Y-126806390D01*
X175095931Y-127377819D02*
X174523074Y-127377819D01*
X174809502Y-127377819D02*
X174809502Y-126377819D01*
X174809502Y-126377819D02*
X174714026Y-126520676D01*
X174714026Y-126520676D02*
X174618550Y-126615914D01*
X174618550Y-126615914D02*
X174523074Y-126663533D01*
X175716526Y-126377819D02*
X175812003Y-126377819D01*
X175812003Y-126377819D02*
X175907479Y-126425438D01*
X175907479Y-126425438D02*
X175955217Y-126473057D01*
X175955217Y-126473057D02*
X176002955Y-126568295D01*
X176002955Y-126568295D02*
X176050693Y-126758771D01*
X176050693Y-126758771D02*
X176050693Y-126996866D01*
X176050693Y-126996866D02*
X176002955Y-127187342D01*
X176002955Y-127187342D02*
X175955217Y-127282580D01*
X175955217Y-127282580D02*
X175907479Y-127330200D01*
X175907479Y-127330200D02*
X175812003Y-127377819D01*
X175812003Y-127377819D02*
X175716526Y-127377819D01*
X175716526Y-127377819D02*
X175621050Y-127330200D01*
X175621050Y-127330200D02*
X175573312Y-127282580D01*
X175573312Y-127282580D02*
X175525574Y-127187342D01*
X175525574Y-127187342D02*
X175477836Y-126996866D01*
X175477836Y-126996866D02*
X175477836Y-126758771D01*
X175477836Y-126758771D02*
X175525574Y-126568295D01*
X175525574Y-126568295D02*
X175573312Y-126473057D01*
X175573312Y-126473057D02*
X175621050Y-126425438D01*
X175621050Y-126425438D02*
X175716526Y-126377819D01*
X149084819Y-125269523D02*
X149799104Y-125269523D01*
X149799104Y-125269523D02*
X149941961Y-125317142D01*
X149941961Y-125317142D02*
X150037200Y-125412380D01*
X150037200Y-125412380D02*
X150084819Y-125555237D01*
X150084819Y-125555237D02*
X150084819Y-125650475D01*
X150084819Y-124269523D02*
X150084819Y-124840951D01*
X150084819Y-124555237D02*
X149084819Y-124555237D01*
X149084819Y-124555237D02*
X149227676Y-124650475D01*
X149227676Y-124650475D02*
X149322914Y-124745713D01*
X149322914Y-124745713D02*
X149370533Y-124840951D01*
X149084819Y-123936189D02*
X149084819Y-123317142D01*
X149084819Y-123317142D02*
X149465771Y-123650475D01*
X149465771Y-123650475D02*
X149465771Y-123507618D01*
X149465771Y-123507618D02*
X149513390Y-123412380D01*
X149513390Y-123412380D02*
X149561009Y-123364761D01*
X149561009Y-123364761D02*
X149656247Y-123317142D01*
X149656247Y-123317142D02*
X149894342Y-123317142D01*
X149894342Y-123317142D02*
X149989580Y-123364761D01*
X149989580Y-123364761D02*
X150037200Y-123412380D01*
X150037200Y-123412380D02*
X150084819Y-123507618D01*
X150084819Y-123507618D02*
X150084819Y-123793332D01*
X150084819Y-123793332D02*
X150037200Y-123888570D01*
X150037200Y-123888570D02*
X149989580Y-123936189D01*
X212604819Y-68913333D02*
X213319104Y-68913333D01*
X213319104Y-68913333D02*
X213461961Y-68960952D01*
X213461961Y-68960952D02*
X213557200Y-69056190D01*
X213557200Y-69056190D02*
X213604819Y-69199047D01*
X213604819Y-69199047D02*
X213604819Y-69294285D01*
X212604819Y-68532380D02*
X212604819Y-67913333D01*
X212604819Y-67913333D02*
X212985771Y-68246666D01*
X212985771Y-68246666D02*
X212985771Y-68103809D01*
X212985771Y-68103809D02*
X213033390Y-68008571D01*
X213033390Y-68008571D02*
X213081009Y-67960952D01*
X213081009Y-67960952D02*
X213176247Y-67913333D01*
X213176247Y-67913333D02*
X213414342Y-67913333D01*
X213414342Y-67913333D02*
X213509580Y-67960952D01*
X213509580Y-67960952D02*
X213557200Y-68008571D01*
X213557200Y-68008571D02*
X213604819Y-68103809D01*
X213604819Y-68103809D02*
X213604819Y-68389523D01*
X213604819Y-68389523D02*
X213557200Y-68484761D01*
X213557200Y-68484761D02*
X213509580Y-68532380D01*
X213044819Y-79073333D02*
X213759104Y-79073333D01*
X213759104Y-79073333D02*
X213901961Y-79120952D01*
X213901961Y-79120952D02*
X213997200Y-79216190D01*
X213997200Y-79216190D02*
X214044819Y-79359047D01*
X214044819Y-79359047D02*
X214044819Y-79454285D01*
X213044819Y-78120952D02*
X213044819Y-78597142D01*
X213044819Y-78597142D02*
X213521009Y-78644761D01*
X213521009Y-78644761D02*
X213473390Y-78597142D01*
X213473390Y-78597142D02*
X213425771Y-78501904D01*
X213425771Y-78501904D02*
X213425771Y-78263809D01*
X213425771Y-78263809D02*
X213473390Y-78168571D01*
X213473390Y-78168571D02*
X213521009Y-78120952D01*
X213521009Y-78120952D02*
X213616247Y-78073333D01*
X213616247Y-78073333D02*
X213854342Y-78073333D01*
X213854342Y-78073333D02*
X213949580Y-78120952D01*
X213949580Y-78120952D02*
X213997200Y-78168571D01*
X213997200Y-78168571D02*
X214044819Y-78263809D01*
X214044819Y-78263809D02*
X214044819Y-78501904D01*
X214044819Y-78501904D02*
X213997200Y-78597142D01*
X213997200Y-78597142D02*
X213949580Y-78644761D01*
X213044819Y-84153333D02*
X213759104Y-84153333D01*
X213759104Y-84153333D02*
X213901961Y-84200952D01*
X213901961Y-84200952D02*
X213997200Y-84296190D01*
X213997200Y-84296190D02*
X214044819Y-84439047D01*
X214044819Y-84439047D02*
X214044819Y-84534285D01*
X213473390Y-83534285D02*
X213425771Y-83629523D01*
X213425771Y-83629523D02*
X213378152Y-83677142D01*
X213378152Y-83677142D02*
X213282914Y-83724761D01*
X213282914Y-83724761D02*
X213235295Y-83724761D01*
X213235295Y-83724761D02*
X213140057Y-83677142D01*
X213140057Y-83677142D02*
X213092438Y-83629523D01*
X213092438Y-83629523D02*
X213044819Y-83534285D01*
X213044819Y-83534285D02*
X213044819Y-83343809D01*
X213044819Y-83343809D02*
X213092438Y-83248571D01*
X213092438Y-83248571D02*
X213140057Y-83200952D01*
X213140057Y-83200952D02*
X213235295Y-83153333D01*
X213235295Y-83153333D02*
X213282914Y-83153333D01*
X213282914Y-83153333D02*
X213378152Y-83200952D01*
X213378152Y-83200952D02*
X213425771Y-83248571D01*
X213425771Y-83248571D02*
X213473390Y-83343809D01*
X213473390Y-83343809D02*
X213473390Y-83534285D01*
X213473390Y-83534285D02*
X213521009Y-83629523D01*
X213521009Y-83629523D02*
X213568628Y-83677142D01*
X213568628Y-83677142D02*
X213663866Y-83724761D01*
X213663866Y-83724761D02*
X213854342Y-83724761D01*
X213854342Y-83724761D02*
X213949580Y-83677142D01*
X213949580Y-83677142D02*
X213997200Y-83629523D01*
X213997200Y-83629523D02*
X214044819Y-83534285D01*
X214044819Y-83534285D02*
X214044819Y-83343809D01*
X214044819Y-83343809D02*
X213997200Y-83248571D01*
X213997200Y-83248571D02*
X213949580Y-83200952D01*
X213949580Y-83200952D02*
X213854342Y-83153333D01*
X213854342Y-83153333D02*
X213663866Y-83153333D01*
X213663866Y-83153333D02*
X213568628Y-83200952D01*
X213568628Y-83200952D02*
X213521009Y-83248571D01*
X213521009Y-83248571D02*
X213473390Y-83343809D01*
X207946666Y-55104819D02*
X207946666Y-55819104D01*
X207946666Y-55819104D02*
X207899047Y-55961961D01*
X207899047Y-55961961D02*
X207803809Y-56057200D01*
X207803809Y-56057200D02*
X207660952Y-56104819D01*
X207660952Y-56104819D02*
X207565714Y-56104819D01*
X208375238Y-55200057D02*
X208422857Y-55152438D01*
X208422857Y-55152438D02*
X208518095Y-55104819D01*
X208518095Y-55104819D02*
X208756190Y-55104819D01*
X208756190Y-55104819D02*
X208851428Y-55152438D01*
X208851428Y-55152438D02*
X208899047Y-55200057D01*
X208899047Y-55200057D02*
X208946666Y-55295295D01*
X208946666Y-55295295D02*
X208946666Y-55390533D01*
X208946666Y-55390533D02*
X208899047Y-55533390D01*
X208899047Y-55533390D02*
X208327619Y-56104819D01*
X208327619Y-56104819D02*
X208946666Y-56104819D01*
X190166666Y-42634819D02*
X190166666Y-43349104D01*
X190166666Y-43349104D02*
X190119047Y-43491961D01*
X190119047Y-43491961D02*
X190023809Y-43587200D01*
X190023809Y-43587200D02*
X189880952Y-43634819D01*
X189880952Y-43634819D02*
X189785714Y-43634819D01*
X190547619Y-42634819D02*
X191214285Y-42634819D01*
X191214285Y-42634819D02*
X190785714Y-43634819D01*
X144446666Y-121144819D02*
X144446666Y-121859104D01*
X144446666Y-121859104D02*
X144399047Y-122001961D01*
X144399047Y-122001961D02*
X144303809Y-122097200D01*
X144303809Y-122097200D02*
X144160952Y-122144819D01*
X144160952Y-122144819D02*
X144065714Y-122144819D01*
X145446666Y-122144819D02*
X144875238Y-122144819D01*
X145160952Y-122144819D02*
X145160952Y-121144819D01*
X145160952Y-121144819D02*
X145065714Y-121287676D01*
X145065714Y-121287676D02*
X144970476Y-121382914D01*
X144970476Y-121382914D02*
X144875238Y-121430533D01*
X152320714Y-61129104D02*
X152796904Y-61129104D01*
X152225476Y-61414819D02*
X152558809Y-60414819D01*
X152558809Y-60414819D02*
X152892142Y-61414819D01*
X153749285Y-61414819D02*
X153177857Y-61414819D01*
X153463571Y-61414819D02*
X153463571Y-60414819D01*
X153463571Y-60414819D02*
X153368333Y-60557676D01*
X153368333Y-60557676D02*
X153273095Y-60652914D01*
X153273095Y-60652914D02*
X153177857Y-60700533D01*
X213044819Y-73993333D02*
X213759104Y-73993333D01*
X213759104Y-73993333D02*
X213901961Y-74040952D01*
X213901961Y-74040952D02*
X213997200Y-74136190D01*
X213997200Y-74136190D02*
X214044819Y-74279047D01*
X214044819Y-74279047D02*
X214044819Y-74374285D01*
X213378152Y-73088571D02*
X214044819Y-73088571D01*
X212997200Y-73326666D02*
X213711485Y-73564761D01*
X213711485Y-73564761D02*
X213711485Y-72945714D01*
X172416666Y-52364819D02*
X172416666Y-53079104D01*
X172416666Y-53079104D02*
X172369047Y-53221961D01*
X172369047Y-53221961D02*
X172273809Y-53317200D01*
X172273809Y-53317200D02*
X172130952Y-53364819D01*
X172130952Y-53364819D02*
X172035714Y-53364819D01*
X173321428Y-52364819D02*
X173130952Y-52364819D01*
X173130952Y-52364819D02*
X173035714Y-52412438D01*
X173035714Y-52412438D02*
X172988095Y-52460057D01*
X172988095Y-52460057D02*
X172892857Y-52602914D01*
X172892857Y-52602914D02*
X172845238Y-52793390D01*
X172845238Y-52793390D02*
X172845238Y-53174342D01*
X172845238Y-53174342D02*
X172892857Y-53269580D01*
X172892857Y-53269580D02*
X172940476Y-53317200D01*
X172940476Y-53317200D02*
X173035714Y-53364819D01*
X173035714Y-53364819D02*
X173226190Y-53364819D01*
X173226190Y-53364819D02*
X173321428Y-53317200D01*
X173321428Y-53317200D02*
X173369047Y-53269580D01*
X173369047Y-53269580D02*
X173416666Y-53174342D01*
X173416666Y-53174342D02*
X173416666Y-52936247D01*
X173416666Y-52936247D02*
X173369047Y-52841009D01*
X173369047Y-52841009D02*
X173321428Y-52793390D01*
X173321428Y-52793390D02*
X173226190Y-52745771D01*
X173226190Y-52745771D02*
X173035714Y-52745771D01*
X173035714Y-52745771D02*
X172940476Y-52793390D01*
X172940476Y-52793390D02*
X172892857Y-52841009D01*
X172892857Y-52841009D02*
X172845238Y-52936247D01*
D11*
%TO.C,J13*%
X153670000Y-125790000D02*
X176590000Y-125790000D01*
X153670000Y-125790000D02*
X153670000Y-123130000D01*
X176590000Y-125790000D02*
X176590000Y-123130000D01*
X151070000Y-124460000D02*
X151070000Y-123130000D01*
X151070000Y-123130000D02*
X152400000Y-123130000D01*
X153670000Y-123130000D02*
X176590000Y-123130000D01*
%TO.C,J3*%
X212150000Y-67250000D02*
X212150000Y-68580000D01*
X210820000Y-67250000D02*
X212150000Y-67250000D01*
X209550000Y-67250000D02*
X204410000Y-67250000D01*
X209550000Y-67250000D02*
X209550000Y-69910000D01*
X204410000Y-67250000D02*
X204410000Y-69910000D01*
X209550000Y-69910000D02*
X204410000Y-69910000D01*
%TO.C,J5*%
X209550000Y-77410000D02*
X204410000Y-77410000D01*
X209550000Y-77410000D02*
X209550000Y-80070000D01*
X204410000Y-77410000D02*
X204410000Y-80070000D01*
X212150000Y-78740000D02*
X212150000Y-80070000D01*
X212150000Y-80070000D02*
X210820000Y-80070000D01*
X209550000Y-80070000D02*
X204410000Y-80070000D01*
%TO.C,J8*%
X209550000Y-82490000D02*
X204410000Y-82490000D01*
X209550000Y-82490000D02*
X209550000Y-85150000D01*
X204410000Y-82490000D02*
X204410000Y-85150000D01*
X212150000Y-83820000D02*
X212150000Y-85150000D01*
X212150000Y-85150000D02*
X210820000Y-85150000D01*
X209550000Y-85150000D02*
X204410000Y-85150000D01*
%TO.C,J2*%
X206950000Y-59690000D02*
X206950000Y-62290000D01*
X206950000Y-59690000D02*
X209610000Y-59690000D01*
X206950000Y-62290000D02*
X209610000Y-62290000D01*
X208280000Y-57090000D02*
X209610000Y-57090000D01*
X209610000Y-57090000D02*
X209610000Y-58420000D01*
X209610000Y-59690000D02*
X209610000Y-62290000D01*
%TO.C,J7*%
X185420000Y-44450000D02*
X185420000Y-52070000D01*
X185420000Y-52070000D02*
X195580000Y-52070000D01*
X195580000Y-44450000D02*
X185420000Y-44450000D01*
X195580000Y-50800000D02*
X185420000Y-50800000D01*
X195580000Y-52070000D02*
X195580000Y-44450000D01*
%TO.C,J1*%
X143450000Y-125670000D02*
X143450000Y-125790000D01*
X143450000Y-125790000D02*
X146110000Y-125790000D01*
X144780000Y-123130000D02*
X146110000Y-123130000D01*
X146110000Y-123130000D02*
X146110000Y-124460000D01*
X146110000Y-125670000D02*
X146110000Y-125790000D01*
%TO.C,A1*%
X141605000Y-62230000D02*
X141605000Y-115700000D01*
X141605000Y-115700000D02*
X188345000Y-115700000D01*
X188345000Y-115700000D02*
X189995000Y-114050000D01*
X189995000Y-62100000D02*
X141605000Y-62230000D01*
X189995000Y-64770000D02*
X189995000Y-62100000D01*
X189995000Y-102620000D02*
X192535000Y-100080000D01*
X189995000Y-114050000D02*
X189995000Y-102620000D01*
X192535000Y-67310000D02*
X189995000Y-64770000D01*
X192535000Y-100080000D02*
X192535000Y-67310000D01*
%TO.C,J4*%
X209550000Y-72330000D02*
X204410000Y-72330000D01*
X209550000Y-72330000D02*
X209550000Y-74990000D01*
X204410000Y-72330000D02*
X204410000Y-74990000D01*
X212150000Y-73660000D02*
X212150000Y-74990000D01*
X212150000Y-74990000D02*
X210820000Y-74990000D01*
X209550000Y-74990000D02*
X204410000Y-74990000D01*
%TO.C,J6*%
X180340000Y-52070000D02*
X165100000Y-52070000D01*
X180340000Y-45720000D02*
X165100000Y-45720000D01*
X180340000Y-44450000D02*
X180340000Y-52070000D01*
X180340000Y-44450000D02*
X165100000Y-44450000D01*
X165100000Y-44450000D02*
X165100000Y-52070000D01*
%TD*%
M02*
